<svg width="45" height="45" viewBox="0 0 45 45" fill="none" xmlns="http://www.w3.org/2000/svg">
<path id="Subtract" fill-rule="evenodd" clip-rule="evenodd" d="M22.5 0C34.9264 0 45 10.0736 45 22.5C45 34.9264 34.9264 45 22.5 45C10.0736 45 0 34.9264 0 22.5C0 10.0736 10.0736 0 22.5 0ZM34.7254 14.9886C35.6305 14.9886 35.8207 15.4258 35.6305 16.0207C35.25 17.6565 31.6036 22.4749 31.6036 22.4749C31.2865 22.9508 31.1597 23.1888 31.6036 23.7241C31.7599 23.9294 32.0935 24.2359 32.4751 24.5865C32.8676 24.9472 33.3109 25.3546 33.6646 25.7467C34.9502 27.1034 35.919 28.2479 36.189 29.0367C36.4356 29.8282 36.0081 30.2293 35.153 30.2293H32.1601C31.3585 30.2293 30.9548 29.8081 30.0826 28.8979C29.7129 28.5121 29.259 28.0384 28.6549 27.4718C26.8793 25.8657 26.1183 25.6574 25.6744 25.6574C25.072 25.6574 24.8917 25.8175 24.8917 26.6197V29.1374C24.8917 29.8282 24.6564 30.2293 22.754 30.2293C19.5833 30.2293 16.0988 28.4235 13.6257 25.0923C9.91602 20.2144 8.90135 16.5262 8.90135 15.7826C8.90135 15.3663 9.07239 14.9886 9.92752 14.9886H12.9203C13.6852 14.9886 13.9729 15.3027 14.2598 16.0801C15.7236 20.0799 18.1916 23.5755 19.2061 23.5755C19.5866 23.5755 19.7612 23.4111 19.7612 22.5047V18.3703C19.6925 17.1935 19.2542 16.6845 18.9296 16.3076C18.7291 16.0748 18.572 15.8923 18.572 15.634C18.572 15.32 18.8581 14.9886 19.3336 14.9886H24.0367C24.6709 14.9886 24.8917 15.3068 24.8917 16.0207V21.5826C24.8917 22.1774 25.1671 22.3856 25.3573 22.3856C25.7378 22.3856 26.0549 22.1774 26.7524 21.5231C28.9085 19.2626 30.4305 15.7826 30.4305 15.7826C30.6207 15.3663 30.9716 14.9886 31.7326 14.9886H34.7254Z" fill="#E85221"/>
</svg>
