<svg width="45" height="45" viewBox="0 0 45 45" fill="none" xmlns="http://www.w3.org/2000/svg">
<g id="Subtract">
<path d="M21.0361 26.2051V20.1192L26.5499 23.063L21.0361 26.2051Z" fill="#E85221"/>
<path fill-rule="evenodd" clip-rule="evenodd" d="M45 22.5C45 34.9264 34.9264 45 22.5 45C10.0736 45 0 34.9264 0 22.5C0 10.0736 10.0736 0 22.5 0C34.9264 0 45 10.0736 45 22.5ZM15.9706 30H29.7794C31.5507 30 33 28.5194 33 26.7097V19.0403C33 17.2306 31.5507 15.75 29.7794 15.75H15.9706C14.1993 15.75 12.75 17.2306 12.75 19.0403V26.7097C12.75 28.5194 14.1993 30 15.9706 30Z" fill="#E85221"/>
</g>
</svg>
